# xmcd
#
# Track frame offsets:
#	150
#	21415
#	34368
#	51023
#	68937
#	91302
#	105548
#	128933
#	144939
#	165457
#	189240
#	206931
#	231978
#	250399
#
# Disc length: 3615 seconds
#
# Revision: 2
# Processed by: cddbd v1.5.2PL0 Copyright (c) Steve Scherf et al.
# Submitted via: audiograbber 1.83.01
#
DISCID=c80e1d0e
DTITLE=Dr John And The Lower 911 - City That Care Forgot
DYEAR=2008
DGENRE=Blues
TTITLE0=Keep On Goin'
TTITLE1=Time For A Change (featuring Eric Clapton)
TTITLE2=Promises, Promises (featuring Willie Nelson)
TTITLE3=You Might Be Surprised
TTITLE4=Dream Warrior
TTITLE5=Black Gold
TTITLE6=We Gettin' There (featuring Terence Blanchard)
TTITLE7=Stripped Away (featuring Eric Clapton)
TTITLE8=Say Whut?
TTITLE9=My People Need A Second Line (featuring James '12' Andrews and Troy 'Tr
TTITLE9=ombone Shorty' Andrews
TTITLE10=Land Grab (featuring Terence Blanchard)
TTITLE11=City That Care Forgot (featuring Eric Clapton and Ani DiFranco)
TTITLE12=Save Our Wetlands (featuring Terrance Simien)
TTITLE13=Mother Earth (Australia/New Zealand Bonus Track)
EXTD=
EXTT0=
EXTT1=
EXTT2=
EXTT3=
EXTT4=
EXTT5=
EXTT6=
EXTT7=
EXTT8=
EXTT9=
EXTT10=
EXTT11=
EXTT12=
EXTT13=
PLAYORDER=
